<?xml version="1.0" encoding="utf-8"?>
<!-- Generator: Adobe Illustrator 19.1.1, SVG Export Plug-In . SVG Version: 6.00 Build 0)  -->
<svg version="1.1" id="Calque_1" xmlns="http://www.w3.org/2000/svg" xmlns:xlink="http://www.w3.org/1999/xlink" x="0px" y="0px"
	 viewBox="-27 59 539.3 723.9" style="enable-background:new -27 59 539.3 723.9;" xml:space="preserve">
<style type="text/css">
	.st0{fill:#3D9A47;stroke:#010101;stroke-miterlimit:10;}
</style>
<g id="Bacrim">
	<path class="st0" d="M220.2,183.3c0,0-1.1,2.4-1.4,3c-0.7,0.1-3.1,0.5-3.1,0.5c-0.3,0-0.6,0.3-0.7,0.6c0,0.1,0,0.2,0,0.3
		c0,0.2,0.1,0.4,0.2,0.6c0,0,1.8,1.8,2.3,2.3c-0.1,0.7-0.5,3.3-0.5,3.3v0.1c0,0.3,0.1,0.5,0.3,0.7s0.6,0.2,0.9,0.1
		c0,0,2.2-1.2,2.8-1.5c0.6,0.3,2.8,1.6,2.8,1.6c0.3,0.2,0.6,0.1,0.9-0.1c0.2-0.2,0.3-0.4,0.3-0.7V194c0,0-0.4-2.6-0.5-3.3
		c0.5-0.5,2.3-2.3,2.3-2.3c0.2-0.2,0.2-0.4,0.2-0.6c0-0.1,0-0.2,0-0.3c-0.1-0.3-0.3-0.5-0.7-0.6c0,0-2.5-0.4-3.1-0.5
		c-0.3-0.6-1.4-3-1.4-3c-0.1-0.3-0.4-0.5-0.7-0.5C220.6,182.8,220.3,183,220.2,183.3z"/>
	<path class="st0" d="M162.6,208.6c0,0-1.1,2.4-1.4,3c-0.7,0.1-3.1,0.5-3.1,0.5c-0.3,0-0.6,0.3-0.7,0.6c0,0.1,0,0.2,0,0.3
		c0,0.2,0.1,0.4,0.2,0.6c0,0,1.8,1.8,2.3,2.3c-0.1,0.7-0.5,3.3-0.5,3.3v0.1c0,0.3,0.1,0.5,0.3,0.7s0.6,0.2,0.9,0.1
		c0,0,2.2-1.2,2.8-1.5c0.6,0.3,2.8,1.6,2.8,1.6c0.3,0.2,0.6,0.1,0.9-0.1c0.2-0.2,0.3-0.4,0.3-0.7v-0.1c0,0-0.4-2.6-0.5-3.3
		c0.5-0.5,2.3-2.3,2.3-2.3c0.2-0.2,0.2-0.4,0.2-0.6c0-0.1,0-0.2,0-0.3c-0.1-0.3-0.3-0.5-0.7-0.6c0,0-2.5-0.4-3.1-0.5
		c-0.3-0.6-1.4-3-1.4-3c-0.1-0.3-0.4-0.5-0.7-0.5C163,208.2,162.7,208.4,162.6,208.6z"/>
	<path class="st0" d="M411.8,496.9c0,0-1.1,2.4-1.4,3c-0.7,0.1-3.1,0.5-3.1,0.5c-0.3,0-0.6,0.3-0.7,0.6c0,0.1,0,0.2,0,0.3
		c0,0.2,0.1,0.4,0.2,0.6c0,0,1.8,1.8,2.3,2.3c-0.1,0.7-0.5,3.3-0.5,3.3v0.1c0,0.3,0.1,0.5,0.3,0.7c0.2,0.2,0.6,0.2,0.9,0.1
		c0,0,2.2-1.2,2.8-1.5c0.6,0.3,2.8,1.6,2.8,1.6c0.3,0.2,0.6,0.1,0.9-0.1c0.2-0.2,0.3-0.4,0.3-0.7v-0.1c0,0-0.4-2.6-0.5-3.3
		c0.5-0.5,2.3-2.3,2.3-2.3c0.2-0.2,0.2-0.4,0.2-0.6c0-0.1,0-0.2,0-0.3c-0.1-0.3-0.3-0.5-0.7-0.6c0,0-2.5-0.4-3.1-0.5
		c-0.3-0.6-1.4-3-1.4-3c-0.1-0.3-0.4-0.5-0.7-0.5C412.2,496.4,412,496.6,411.8,496.9z"/>
	<path class="st0" d="M364.8,323.9c0,0-1.1,2.4-1.4,3c-0.7,0.1-3.1,0.5-3.1,0.5c-0.3,0-0.6,0.3-0.7,0.6c0,0.1,0,0.2,0,0.3
		c0,0.2,0.1,0.4,0.2,0.6c0,0,1.8,1.8,2.3,2.3c-0.1,0.7-0.5,3.3-0.5,3.3v0.1c0,0.3,0.1,0.5,0.3,0.7c0.2,0.2,0.6,0.2,0.9,0.1
		c0,0,2.2-1.2,2.8-1.5c0.6,0.3,2.8,1.6,2.8,1.6c0.3,0.2,0.6,0.1,0.9-0.1c0.2-0.2,0.3-0.4,0.3-0.7v-0.1c0,0-0.4-2.6-0.5-3.3
		c0.5-0.5,2.3-2.3,2.3-2.3c0.2-0.2,0.2-0.4,0.2-0.6c0-0.1,0-0.2,0-0.3c-0.1-0.3-0.3-0.5-0.7-0.6c0,0-2.5-0.4-3.1-0.5
		c-0.3-0.6-1.4-3-1.4-3c-0.1-0.3-0.4-0.5-0.7-0.5C365.2,323.4,365,323.6,364.8,323.9z"/>
	<path class="st0" d="M206.9,373.5c0,0-1.1,2.4-1.4,3c-0.7,0.1-3.1,0.5-3.1,0.5c-0.3,0-0.6,0.3-0.7,0.6c0,0.1,0,0.2,0,0.3
		c0,0.2,0.1,0.4,0.2,0.6c0,0,1.8,1.8,2.3,2.3c-0.1,0.7-0.5,3.3-0.5,3.3v0.1c0,0.3,0.1,0.5,0.3,0.7s0.6,0.2,0.9,0.1
		c0,0,2.2-1.2,2.8-1.5c0.6,0.3,2.8,1.6,2.8,1.6c0.3,0.2,0.6,0.1,0.9-0.1c0.2-0.2,0.3-0.4,0.3-0.7v-0.1c0,0-0.4-2.6-0.5-3.3
		c0.5-0.5,2.3-2.3,2.3-2.3c0.2-0.2,0.2-0.4,0.2-0.6c0-0.1,0-0.2,0-0.3c-0.1-0.3-0.3-0.5-0.7-0.6c0,0-2.5-0.4-3.1-0.5
		c-0.3-0.6-1.4-3-1.4-3c-0.1-0.3-0.4-0.5-0.7-0.5C207.4,373,207.1,373.2,206.9,373.5z"/>
	<path class="st0" d="M282.9,92.7c0,0-1.1,2.4-1.4,3c-0.7,0.1-3.1,0.5-3.1,0.5c-0.3,0-0.6,0.3-0.7,0.6c0,0.1,0,0.2,0,0.3
		c0,0.2,0.1,0.4,0.2,0.6c0,0,1.8,1.8,2.3,2.3c-0.1,0.7-0.5,3.3-0.5,3.3v0.1c0,0.3,0.1,0.5,0.3,0.7c0.2,0.2,0.6,0.2,0.9,0.1
		c0,0,2.2-1.2,2.8-1.5c0.6,0.3,2.8,1.6,2.8,1.6c0.3,0.2,0.6,0.1,0.9-0.1c0.2-0.2,0.3-0.4,0.3-0.7v-0.1c0,0-0.4-2.6-0.5-3.3
		c0.5-0.5,2.3-2.3,2.3-2.3c0.2-0.2,0.2-0.4,0.2-0.6c0-0.1,0-0.2,0-0.3c-0.1-0.3-0.3-0.5-0.7-0.6c0,0-2.5-0.4-3.1-0.5
		c-0.3-0.6-1.4-3-1.4-3c-0.1-0.3-0.4-0.5-0.7-0.5C283.3,92.2,283,92.4,282.9,92.7z"/>
	<path class="st0" d="M78,319c0,0-1.1,2.4-1.4,3c-0.7,0.1-3.2,0.5-3.2,0.5c-0.3,0-0.6,0.3-0.7,0.6c0,0.1,0,0.2,0,0.3
		c0,0.2,0.1,0.4,0.2,0.6c0,0,1.8,1.8,2.3,2.3c-0.1,0.7-0.5,3.3-0.5,3.3v0.1c0,0.3,0.1,0.5,0.3,0.7c0.2,0.2,0.6,0.2,0.9,0.1
		c0,0,2.2-1.2,2.8-1.5c0.6,0.3,2.8,1.6,2.8,1.6c0.3,0.2,0.6,0.1,0.9-0.1c0.2-0.2,0.3-0.4,0.3-0.7v-0.1c0,0-0.4-2.6-0.5-3.3
		c0.5-0.5,2.3-2.3,2.3-2.3c0.2-0.2,0.2-0.4,0.2-0.6c0-0.1,0-0.2,0-0.3c-0.1-0.3-0.3-0.5-0.7-0.6c0,0-2.5-0.4-3.1-0.5
		c-0.3-0.6-1.4-3-1.4-3c-0.1-0.3-0.4-0.5-0.7-0.5C78.4,318.5,78.1,318.7,78,319z"/>
	<path class="st0" d="M88.8,435.2c0,0-1.1,2.4-1.4,3c-0.7,0.1-3.1,0.5-3.1,0.5c-0.3,0-0.6,0.3-0.7,0.6c0,0.1,0,0.2,0,0.3
		c0,0.2,0.1,0.4,0.2,0.6c0,0,1.8,1.8,2.3,2.3c-0.1,0.7-0.5,3.3-0.5,3.3v0.1c0,0.3,0.1,0.5,0.3,0.7c0.2,0.2,0.6,0.2,0.9,0.1
		c0,0,2.2-1.2,2.8-1.5c0.6,0.3,2.8,1.6,2.8,1.6c0.3,0.2,0.6,0.1,0.9-0.1c0.2-0.2,0.3-0.4,0.3-0.7v-0.1c0,0-0.4-2.6-0.5-3.3
		c0.5-0.5,2.3-2.3,2.3-2.3c0.2-0.2,0.2-0.4,0.2-0.6c0-0.1,0-0.2,0-0.3c-0.1-0.3-0.3-0.5-0.7-0.6c0,0-2.5-0.4-3.1-0.5
		c-0.3-0.6-1.4-3-1.4-3c-0.1-0.3-0.4-0.5-0.7-0.5C89.2,434.7,89,434.9,88.8,435.2z"/>
	<path class="st0" d="M231,467.9c0,0-1.1,2.4-1.4,3c-0.7,0.1-3.1,0.5-3.1,0.5c-0.3,0-0.6,0.3-0.7,0.6c0,0.1,0,0.2,0,0.3
		c0,0.2,0.1,0.4,0.2,0.6c0,0,1.8,1.8,2.3,2.3c-0.1,0.7-0.5,3.3-0.5,3.3v0.1c0,0.3,0.1,0.5,0.3,0.7s0.6,0.2,0.9,0.1
		c0,0,2.2-1.2,2.8-1.5c0.6,0.3,2.8,1.6,2.8,1.6c0.3,0.2,0.6,0.1,0.9-0.1c0.2-0.2,0.3-0.4,0.3-0.7v-0.1c0,0-0.4-2.6-0.5-3.3
		c0.5-0.5,2.3-2.3,2.3-2.3c0.2-0.2,0.2-0.4,0.2-0.6c0-0.1,0-0.2,0-0.3c-0.1-0.3-0.3-0.5-0.7-0.6c0,0-2.5-0.4-3.1-0.5
		c-0.3-0.6-1.4-3-1.4-3c-0.1-0.3-0.4-0.5-0.7-0.5C231.5,467.4,231.2,467.6,231,467.9z"/>
	<path class="st0" d="M204.5,306.9c0,0-1.1,2.4-1.4,3c-0.7,0.1-3.1,0.5-3.1,0.5c-0.3,0-0.6,0.3-0.7,0.6c0,0.1,0,0.2,0,0.3
		c0,0.2,0.1,0.4,0.2,0.6c0,0,1.8,1.8,2.3,2.3c-0.1,0.7-0.5,3.3-0.5,3.3v0.1c0,0.3,0.1,0.5,0.3,0.7s0.6,0.2,0.9,0.1
		c0,0,2.2-1.2,2.8-1.5c0.6,0.3,2.8,1.6,2.8,1.6c0.3,0.2,0.6,0.1,0.9-0.1c0.2-0.2,0.3-0.4,0.3-0.7v-0.1c0,0-0.4-2.6-0.5-3.3
		c0.5-0.5,2.3-2.3,2.3-2.3c0.2-0.2,0.2-0.4,0.2-0.6c0-0.1,0-0.2,0-0.3c-0.1-0.3-0.3-0.5-0.7-0.6c0,0-2.5-0.4-3.1-0.5
		c-0.3-0.6-1.4-3-1.4-3c-0.1-0.3-0.4-0.5-0.7-0.5C204.9,306.4,204.7,306.6,204.5,306.9z"/>
	<path class="st0" d="M11.7,117.5c0,0-1.1,2.4-1.4,3c-0.7,0.1-3.2,0.5-3.2,0.5c-0.3,0-0.6,0.3-0.7,0.6c0,0.1,0,0.2,0,0.3
		c0,0.2,0.1,0.4,0.2,0.6c0,0,1.8,1.8,2.3,2.3c-0.1,0.7-0.5,3.3-0.5,3.3v0.1c0,0.3,0.1,0.5,0.3,0.7s0.6,0.2,0.9,0.1
		c0,0,2.2-1.2,2.8-1.5c0.6,0.3,2.8,1.6,2.8,1.6c0.3,0.2,0.6,0.1,0.9-0.1c0.2-0.2,0.3-0.4,0.3-0.7v-0.1c0,0-0.4-2.6-0.5-3.3
		c0.5-0.5,2.3-2.3,2.3-2.3c0.2-0.2,0.2-0.4,0.2-0.6c0-0.1,0-0.2,0-0.3c-0.1-0.5-0.4-0.7-0.7-0.7c0,0-2.5-0.4-3.1-0.5
		c-0.3-0.6-1.4-3-1.4-3c-0.2-0.3-0.4-0.5-0.7-0.5C12.1,117,11.9,117.2,11.7,117.5z"/>
</g>
</svg>
