<?xml version="1.0" encoding="utf-8"?>
<!-- Generator: Adobe Illustrator 19.1.1, SVG Export Plug-In . SVG Version: 6.00 Build 0)  -->
<svg version="1.1" id="Calque_1" xmlns="http://www.w3.org/2000/svg" xmlns:xlink="http://www.w3.org/1999/xlink" x="0px" y="0px"
	 viewBox="0 0 539.3 723.9" style="enable-background:new 0 0 539.3 723.9;" xml:space="preserve">
<style type="text/css">
	.st0{fill:#A4D9F4;stroke:#0A84C1;stroke-width:0.216;stroke-miterlimit:22.9256;}
	.st1{fill:none;}
	.st2{fill:#CDCDCC;stroke:#010101;stroke-width:0.5;stroke-miterlimit:10;}
	.st3{fill:#F37947;stroke:#010101;stroke-miterlimit:10;}
</style>
<path class="st0" d="M538.9,0.1"/>
<g id="Violence_Area">
	<line class="st1" x1="290.7" y1="213.6" x2="306.8" y2="213.6"/>
	<path class="st2" d="M297.5,212.4"/>
</g>
<g id="ELN">
	<path class="st3" d="M213.9,273.7c0,0-1.1,2.4-1.3,3c-0.7,0.1-3.1,0.6-3.1,0.6c-0.3,0.1-0.6,0.3-0.6,0.6c0,0.1,0,0.2,0,0.3
		c0,0.2,0.1,0.4,0.3,0.6c0,0,1.8,1.8,2.3,2.3c-0.1,0.7-0.5,3.3-0.5,3.3c0,0,0,0.1,0,0.1c0,0.3,0.1,0.5,0.4,0.7
		c0.3,0.2,0.6,0.2,0.9,0c0,0,2.2-1.3,2.8-1.6c0.6,0.3,2.9,1.5,2.9,1.5c0.3,0.1,0.6,0.1,0.9-0.1c0.2-0.2,0.3-0.4,0.3-0.7
		c0,0,0-0.1,0-0.1c0,0-0.5-2.6-0.6-3.3c0.5-0.5,2.2-2.4,2.2-2.4c0.2-0.2,0.2-0.4,0.2-0.6c0-0.1,0-0.2,0-0.3
		c-0.1-0.3-0.4-0.5-0.7-0.6c0,0-2.5-0.3-3.2-0.4c-0.3-0.6-1.5-3-1.5-3c-0.1-0.3-0.4-0.5-0.7-0.5C214.3,273.2,214,273.4,213.9,273.7z
		"/>
	<path class="st3" d="M280.3,219.2c0,0-1.1,2.4-1.4,3c-0.7,0.1-3.1,0.5-3.1,0.5c-0.3,0-0.6,0.3-0.7,0.6c0,0.1,0,0.2,0,0.3
		c0,0.2,0.1,0.4,0.2,0.6c0,0,1.8,1.8,2.3,2.3c-0.1,0.7-0.5,3.3-0.5,3.3c0,0,0,0.1,0,0.1c0,0.3,0.1,0.5,0.3,0.7
		c0.2,0.2,0.6,0.2,0.9,0.1c0,0,2.2-1.2,2.8-1.5c0.6,0.3,2.8,1.6,2.8,1.6c0.3,0.2,0.6,0.1,0.9-0.1c0.2-0.2,0.3-0.4,0.3-0.7
		c0,0,0-0.1,0-0.1c0,0-0.4-2.6-0.5-3.3c0.5-0.5,2.3-2.3,2.3-2.3c0.2-0.2,0.2-0.4,0.2-0.6c0-0.1,0-0.2,0-0.3
		c-0.1-0.3-0.3-0.5-0.7-0.6c0,0-2.5-0.4-3.1-0.5c-0.3-0.6-1.4-3-1.4-3c-0.1-0.3-0.4-0.5-0.7-0.5
		C280.8,218.7,280.5,218.9,280.3,219.2z"/>
	<path class="st3" d="M328.5,245.8c0,0-1.1,2.4-1.4,3c-0.7,0.1-3.1,0.5-3.1,0.5c-0.3,0-0.6,0.3-0.7,0.6c0,0.1,0,0.2,0,0.3
		c0,0.2,0.1,0.4,0.2,0.6c0,0,1.8,1.8,2.3,2.3c-0.1,0.7-0.5,3.3-0.5,3.3c0,0,0,0.1,0,0.1c0,0.3,0.1,0.5,0.3,0.7
		c0.2,0.2,0.6,0.2,0.9,0.1c0,0,2.2-1.2,2.8-1.5c0.6,0.3,2.8,1.6,2.8,1.6c0.3,0.2,0.6,0.1,0.9-0.1c0.2-0.2,0.3-0.4,0.3-0.7
		c0,0,0-0.1,0-0.1c0,0-0.4-2.6-0.5-3.3c0.5-0.5,2.3-2.3,2.3-2.3c0.2-0.2,0.2-0.4,0.2-0.6c0-0.1,0-0.2,0-0.3
		c-0.1-0.3-0.3-0.5-0.7-0.6c0,0-2.5-0.4-3.1-0.5c-0.3-0.6-1.4-3-1.4-3c-0.1-0.3-0.4-0.5-0.7-0.5C329,245.4,328.7,245.5,328.5,245.8z
		"/>
	<path class="st3" d="M130.9,291.8c0,0-1.1,2.4-1.4,3c-0.7,0.1-3.1,0.5-3.1,0.5c-0.3,0-0.6,0.3-0.7,0.6c0,0.1,0,0.2,0,0.3
		c0,0.2,0.1,0.4,0.2,0.6c0,0,1.8,1.8,2.3,2.3c-0.1,0.7-0.5,3.3-0.5,3.3c0,0,0,0.1,0,0.1c0,0.3,0.1,0.5,0.3,0.7
		c0.2,0.2,0.6,0.2,0.9,0.1c0,0,2.2-1.2,2.8-1.5c0.6,0.3,2.8,1.6,2.8,1.6c0.3,0.2,0.6,0.1,0.9-0.1c0.2-0.2,0.3-0.4,0.3-0.7
		c0,0,0-0.1,0-0.1c0,0-0.4-2.6-0.5-3.3c0.5-0.5,2.3-2.3,2.3-2.3c0.2-0.2,0.2-0.4,0.2-0.6c0-0.1,0-0.2,0-0.3
		c-0.1-0.3-0.3-0.5-0.7-0.6c0,0-2.5-0.4-3.1-0.5c-0.3-0.6-1.4-3-1.4-3c-0.1-0.3-0.4-0.5-0.7-0.5C131.3,291.4,131,291.5,130.9,291.8z
		"/>
	<path class="st3" d="M44.1,461.3c0,0-1.1,2.4-1.4,3c-0.7,0.1-3.2,0.5-3.2,0.5c-0.3,0-0.6,0.3-0.7,0.6c0,0.1,0,0.2,0,0.3
		c0,0.2,0.1,0.4,0.2,0.6c0,0,1.8,1.8,2.3,2.3c-0.1,0.7-0.5,3.3-0.5,3.3c0,0,0,0.1,0,0.1c0,0.3,0.1,0.5,0.3,0.7
		c0.2,0.2,0.6,0.2,0.9,0.1c0,0,2.2-1.2,2.8-1.5c0.6,0.3,2.8,1.6,2.8,1.6c0.3,0.2,0.6,0.1,0.9-0.1c0.2-0.2,0.3-0.4,0.3-0.7
		c0,0,0-0.1,0-0.1c0,0-0.4-2.6-0.5-3.3c0.5-0.5,2.3-2.3,2.3-2.3c0.2-0.2,0.2-0.4,0.2-0.6c0-0.1,0-0.2,0-0.3
		c-0.1-0.3-0.3-0.5-0.7-0.6c0,0-2.5-0.4-3.1-0.5c-0.3-0.6-1.4-3-1.4-3c-0.1-0.3-0.4-0.5-0.7-0.5C44.5,460.8,44.2,461,44.1,461.3z"/>
	<path class="st3" d="M216.5,205.9c0,0-1.1,2.4-1.4,3c-0.7,0.1-3.1,0.5-3.1,0.5c-0.3,0-0.6,0.3-0.7,0.6c0,0.1,0,0.2,0,0.3
		c0,0.2,0.1,0.4,0.2,0.6c0,0,1.8,1.8,2.3,2.3c-0.1,0.7-0.5,3.3-0.5,3.3c0,0,0,0.1,0,0.1c0,0.3,0.1,0.5,0.3,0.7
		c0.2,0.2,0.6,0.2,0.9,0.1c0,0,2.2-1.2,2.8-1.5c0.6,0.3,2.8,1.6,2.8,1.6c0.3,0.2,0.6,0.1,0.9-0.1c0.2-0.2,0.3-0.4,0.3-0.7
		c0,0,0-0.1,0-0.1c0,0-0.4-2.6-0.5-3.3c0.5-0.5,2.3-2.3,2.3-2.3c0.2-0.2,0.2-0.4,0.2-0.6c0-0.1,0-0.2,0-0.3
		c-0.1-0.3-0.3-0.5-0.7-0.6c0,0-2.5-0.4-3.1-0.5c-0.3-0.6-1.4-3-1.4-3c-0.1-0.3-0.4-0.5-0.7-0.5
		C216.9,205.4,216.6,205.6,216.5,205.9z"/>
</g>
</svg>
