<?xml version="1.0" encoding="utf-8"?>
<!-- Generator: Adobe Illustrator 19.1.1, SVG Export Plug-In . SVG Version: 6.00 Build 0)  -->
<svg version="1.1" id="Calque_1" xmlns="http://www.w3.org/2000/svg" xmlns:xlink="http://www.w3.org/1999/xlink" x="0px" y="0px"
	 viewBox="-27 59 539.3 723.9" style="enable-background:new -27 59 539.3 723.9;" xml:space="preserve">
<style type="text/css">
	.st0{fill:none;stroke:#010101;stroke-miterlimit:10;}
	.st1{fill:#ED1D24;stroke:#010101;stroke-miterlimit:10;}
</style>
<g id="Violence_Area">
	<path class="st0" d="M260.7,127.8"/>
</g>
<g id="FARC">
	<path class="st1" d="M195.4,245.3c0,0-1.1,2.4-1.4,3c-0.7,0.1-3.1,0.5-3.1,0.5c-0.3,0-0.6,0.3-0.7,0.6c0,0.1,0,0.2,0,0.3
		c0,0.2,0.1,0.4,0.2,0.6c0,0,1.8,1.8,2.3,2.3c-0.1,0.7-0.5,3.3-0.5,3.3v0.1c0,0.3,0.1,0.5,0.3,0.7c0.2,0.2,0.6,0.2,0.9,0.1
		c0,0,2.2-1.2,2.8-1.5c0.6,0.3,2.8,1.6,2.8,1.6c0.3,0.2,0.6,0.1,0.9-0.1c0.2-0.2,0.3-0.4,0.3-0.7V256c0,0-0.4-2.6-0.5-3.3
		c0.5-0.5,2.3-2.3,2.3-2.3c0.2-0.2,0.2-0.4,0.2-0.6c0-0.1,0-0.2,0-0.3c-0.1-0.3-0.3-0.5-0.7-0.6c0,0-2.5-0.4-3.1-0.5
		c-0.3-0.6-1.4-3-1.4-3c-0.1-0.3-0.4-0.5-0.7-0.5C195.8,244.8,195.5,245,195.4,245.3z"/>
	<path class="st1" d="M82.1,395.3c0,0-1.1,2.4-1.4,3c-0.7,0.1-3.1,0.5-3.1,0.5c-0.3,0-0.6,0.3-0.7,0.6c0,0.1,0,0.2,0,0.3
		c0,0.2,0.1,0.4,0.2,0.6c0,0,1.8,1.8,2.3,2.3c-0.1,0.7-0.5,3.3-0.5,3.3v0.1c0,0.3,0.1,0.5,0.3,0.7c0.2,0.2,0.6,0.2,0.9,0.1
		c0,0,2.2-1.2,2.8-1.5c0.6,0.3,2.8,1.6,2.8,1.6c0.3,0.2,0.6,0.1,0.9-0.1c0.2-0.2,0.3-0.4,0.3-0.7V406c0,0-0.4-2.6-0.5-3.3
		c0.5-0.5,2.3-2.3,2.3-2.3c0.2-0.2,0.2-0.4,0.2-0.6c0-0.1,0-0.2,0-0.3c-0.1-0.3-0.3-0.5-0.7-0.6c0,0-2.5-0.4-3.1-0.5
		c-0.3-0.6-1.4-3-1.4-3c-0.1-0.3-0.4-0.5-0.7-0.5C82.6,394.8,82.3,395,82.1,395.3z"/>
	<path class="st1" d="M105,469.1c0,0-1.1,2.4-1.4,3c-0.7,0.1-3.1,0.5-3.1,0.5c-0.3,0-0.6,0.3-0.7,0.6c0,0.1,0,0.2,0,0.3
		c0,0.2,0.1,0.4,0.2,0.6c0,0,1.8,1.8,2.3,2.3c-0.1,0.7-0.5,3.3-0.5,3.3v0.1c0,0.3,0.1,0.5,0.3,0.7s0.6,0.2,0.9,0.1
		c0,0,2.2-1.2,2.8-1.5c0.6,0.3,2.8,1.6,2.8,1.6c0.3,0.2,0.6,0.1,0.9-0.1c0.2-0.2,0.3-0.4,0.3-0.7v-0.1c0,0-0.4-2.6-0.5-3.3
		c0.5-0.5,2.3-2.3,2.3-2.3c0.2-0.2,0.2-0.4,0.2-0.6c0-0.1,0-0.2,0-0.3c-0.1-0.3-0.3-0.5-0.7-0.6c0,0-2.5-0.4-3.1-0.5
		c-0.3-0.6-1.4-3-1.4-3c-0.1-0.3-0.4-0.5-0.7-0.5C105.5,468.6,105.2,468.8,105,469.1z"/>
	<path class="st1" d="M156.9,435.1c0,0-1.1,2.4-1.4,3c-0.7,0.1-3.1,0.5-3.1,0.5c-0.3,0-0.6,0.3-0.7,0.6c0,0.1,0,0.2,0,0.3
		c0,0.2,0.1,0.4,0.2,0.6c0,0,1.8,1.8,2.3,2.3c-0.1,0.7-0.5,3.3-0.5,3.3v0.1c0,0.3,0.1,0.5,0.3,0.7s0.6,0.2,0.9,0.1
		c0,0,2.2-1.2,2.8-1.5c0.6,0.3,2.8,1.6,2.8,1.6c0.3,0.2,0.6,0.1,0.9-0.1c0.2-0.2,0.3-0.4,0.3-0.7v-0.1c0,0-0.4-2.6-0.5-3.3
		c0.5-0.5,2.3-2.3,2.3-2.3c0.2-0.2,0.2-0.4,0.2-0.6c0-0.1,0-0.2,0-0.3c-0.1-0.3-0.3-0.5-0.7-0.6c0,0-2.5-0.4-3.1-0.5
		c-0.3-0.6-1.4-3-1.4-3c-0.1-0.3-0.4-0.5-0.7-0.5C157.3,434.6,157,434.8,156.9,435.1z"/>
	<path class="st1" d="M302.7,402.6c0,0-1.1,2.4-1.4,3c-0.7,0.1-3.1,0.5-3.1,0.5c-0.3,0-0.6,0.3-0.7,0.6c0,0.1,0,0.2,0,0.3
		c0,0.2,0.1,0.4,0.2,0.6c0,0,1.8,1.8,2.3,2.3c-0.1,0.7-0.5,3.3-0.5,3.3v0.1c0,0.3,0.1,0.5,0.3,0.7c0.2,0.2,0.6,0.2,0.9,0.1
		c0,0,2.2-1.2,2.8-1.5c0.6,0.3,2.8,1.6,2.8,1.6c0.3,0.2,0.6,0.1,0.9-0.1c0.2-0.2,0.3-0.4,0.3-0.7v-0.1c0,0-0.4-2.6-0.5-3.3
		c0.5-0.5,2.3-2.3,2.3-2.3c0.2-0.2,0.2-0.4,0.2-0.6c0-0.1,0-0.2,0-0.3c-0.1-0.3-0.3-0.5-0.7-0.6c0,0-2.5-0.4-3.1-0.5
		c-0.3-0.6-1.4-3-1.4-3c-0.1-0.3-0.4-0.5-0.7-0.5C303.1,402.1,302.8,402.3,302.7,402.6z"/>
	<path class="st1" d="M213.1,277.9c0,0-1.1,2.4-1.4,3c-0.7,0.1-3.1,0.5-3.1,0.5c-0.3,0-0.6,0.3-0.7,0.6c0,0.1,0,0.2,0,0.3
		c0,0.2,0.1,0.4,0.2,0.6c0,0,1.8,1.8,2.3,2.3c-0.1,0.7-0.5,3.3-0.5,3.3v0.1c0,0.3,0.1,0.5,0.3,0.7c0.2,0.2,0.6,0.2,0.9,0.1
		c0,0,2.2-1.2,2.8-1.5c0.6,0.3,2.8,1.6,2.8,1.6c0.3,0.2,0.6,0.1,0.9-0.1c0.2-0.2,0.3-0.4,0.3-0.7v-0.1c0,0-0.4-2.6-0.5-3.3
		c0.5-0.5,2.3-2.3,2.3-2.3c0.2-0.2,0.2-0.4,0.2-0.6c0-0.1,0-0.2,0-0.3c-0.1-0.3-0.3-0.5-0.7-0.6c0,0-2.5-0.4-3.1-0.5
		c-0.3-0.6-1.4-3-1.4-3c-0.1-0.3-0.4-0.5-0.7-0.5C213.6,277.4,213.4,277.6,213.1,277.9z"/>
	<path class="st1" d="M347.3,309.4c0,0-1.1,2.4-1.4,3c-0.7,0.1-3.1,0.5-3.1,0.5c-0.3,0-0.6,0.3-0.7,0.6c0,0.1,0,0.2,0,0.3
		c0,0.2,0.1,0.4,0.2,0.6c0,0,1.8,1.8,2.3,2.3c-0.1,0.7-0.5,3.3-0.5,3.3v0.1c0,0.3,0.1,0.5,0.3,0.7c0.2,0.2,0.6,0.2,0.9,0.1
		c0,0,2.2-1.2,2.8-1.5c0.6,0.3,2.8,1.6,2.8,1.6c0.3,0.2,0.6,0.1,0.9-0.1c0.2-0.2,0.3-0.4,0.3-0.7v-0.1c0,0-0.4-2.6-0.5-3.3
		c0.5-0.5,2.3-2.3,2.3-2.3c0.2-0.2,0.2-0.4,0.2-0.6c0-0.1,0-0.2,0-0.3c-0.1-0.3-0.3-0.5-0.7-0.6c0,0-2.5-0.4-3.1-0.5
		c-0.3-0.6-1.4-3-1.4-3c-0.1-0.3-0.4-0.5-0.7-0.5C347.7,308.9,347.4,309.1,347.3,309.4z"/>
	<path class="st1" d="M307.5,487.3c0,0-1.1,2.4-1.4,3c-0.7,0.1-3.1,0.5-3.1,0.5c-0.3,0-0.6,0.3-0.7,0.6c0,0.1,0,0.2,0,0.3
		c0,0.2,0.1,0.4,0.2,0.6c0,0,1.8,1.8,2.3,2.3c-0.1,0.7-0.5,3.3-0.5,3.3v0.1c0,0.3,0.1,0.5,0.3,0.7c0.2,0.2,0.6,0.2,0.9,0.1
		c0,0,2.2-1.2,2.8-1.5c0.6,0.3,2.8,1.6,2.8,1.6c0.3,0.2,0.6,0.1,0.9-0.1c0.2-0.2,0.3-0.4,0.3-0.7V498c0,0-0.4-2.6-0.5-3.3
		c0.5-0.5,2.3-2.3,2.3-2.3c0.2-0.2,0.2-0.4,0.2-0.6c0-0.1,0-0.2,0-0.3c-0.1-0.3-0.3-0.5-0.7-0.6c0,0-2.5-0.4-3.1-0.5
		c-0.3-0.6-1.4-3-1.4-3c-0.1-0.3-0.4-0.5-0.7-0.5C307.9,486.8,307.7,487,307.5,487.3z"/>
	<path class="st1" d="M203.9,549c0,0-1.1,2.4-1.4,3c-0.7,0.1-3.1,0.5-3.1,0.5c-0.3,0-0.6,0.3-0.7,0.6c0,0.1,0,0.2,0,0.3
		c0,0.2,0.1,0.4,0.2,0.6c0,0,1.8,1.8,2.3,2.3c-0.1,0.7-0.5,3.3-0.5,3.3v0.1c0,0.3,0.1,0.5,0.3,0.7s0.6,0.2,0.9,0.1
		c0,0,2.2-1.2,2.8-1.5c0.6,0.3,2.8,1.6,2.8,1.6c0.3,0.2,0.6,0.1,0.9-0.1c0.2-0.2,0.3-0.4,0.3-0.7v-0.1c0,0-0.4-2.6-0.5-3.3
		c0.5-0.5,2.3-2.3,2.3-2.3c0.2-0.2,0.2-0.4,0.2-0.6c0-0.1,0-0.2,0-0.3c-0.1-0.3-0.3-0.5-0.7-0.6c0,0-2.5-0.4-3.1-0.5
		c-0.3-0.6-1.4-3-1.4-3c-0.1-0.3-0.4-0.5-0.7-0.5C204.3,548.5,204,548.7,203.9,549z"/>
	<path class="st1" d="M264.6,109.6c0,0-1.1,2.4-1.4,3c-0.7,0.1-3.1,0.5-3.1,0.5c-0.3,0-0.6,0.3-0.7,0.6c0,0.1,0,0.2,0,0.3
		c0,0.2,0.1,0.4,0.2,0.6c0,0,1.8,1.8,2.3,2.3c-0.1,0.7-0.5,3.3-0.5,3.3v0.1c0,0.3,0.1,0.5,0.3,0.7c0.2,0.2,0.6,0.2,0.9,0.1
		c0,0,2.2-1.2,2.8-1.5c0.6,0.3,2.8,1.6,2.8,1.6c0.3,0.2,0.6,0.1,0.9-0.1c0.2-0.2,0.3-0.4,0.3-0.7v-0.1c0,0-0.4-2.6-0.5-3.3
		c0.5-0.5,2.3-2.3,2.3-2.3c0.2-0.2,0.2-0.4,0.2-0.6c0-0.1,0-0.2,0-0.3c-0.1-0.3-0.3-0.5-0.7-0.6c0,0-2.5-0.4-3.1-0.5
		c-0.3-0.6-1.4-3-1.4-3c-0.1-0.3-0.4-0.5-0.7-0.5C265,109.1,264.7,109.3,264.6,109.6z"/>
	<path class="st1" d="M223.1,160.5c0,0-1.1,2.4-1.4,3c-0.7,0.1-3.1,0.5-3.1,0.5c-0.3,0-0.6,0.3-0.7,0.6c0,0.1,0,0.2,0,0.3
		c0,0.2,0.1,0.4,0.2,0.6c0,0,1.8,1.8,2.3,2.3c-0.1,0.7-0.5,3.3-0.5,3.3v0.1c0,0.3,0.1,0.5,0.3,0.7s0.6,0.2,0.9,0.1
		c0,0,2.2-1.2,2.8-1.5c0.6,0.3,2.8,1.6,2.8,1.6c0.3,0.2,0.6,0.1,0.9-0.1c0.2-0.2,0.3-0.4,0.3-0.7v-0.1c0,0-0.4-2.6-0.5-3.3
		c0.5-0.5,2.3-2.3,2.3-2.3c0.2-0.2,0.2-0.4,0.2-0.6c0-0.1,0-0.2,0-0.3c-0.1-0.3-0.3-0.5-0.7-0.6c0,0-2.5-0.4-3.1-0.5
		c-0.3-0.6-1.4-3-1.4-3c-0.1-0.3-0.4-0.5-0.7-0.5C223.6,160,223.3,160.2,223.1,160.5z"/>
</g>
</svg>
